
<svg version="1.1" xmlns="http://www.w3.org/2000/svg" xmlns:xlink="http://www.w3.org/1999/xlink" x="0px" y="0px"
	 width="1798.3px" height="755.5px" viewBox="0 0 1798.3 755.5" style="enable-background:new 0 0 1798.3 755.5;"
	 xml:space="preserve">
<style type="text/css">
	.st0{fill:none;stroke:#000000;stroke-width:4;stroke-miterlimit:10;}
</style>
<defs>
</defs>
<g>
	<g>
		<path class="st0" d="M1731,20c7.1,1.9,14.4,3.4,21.4,5.9c17.4,6.2,31,16.9,37.7,34.7c5.2,13.8,3.5,27.4-1.5,40.8
			c-5.1,13.4-13.8,24.5-23.1,35.3c-17.3,19.8-38,35.5-59.9,49.7c-29,18.8-59.8,33.9-93.7,41.3c-16.4,3.6-33.2,5-49.7-1.2
			c-14.6-5.5-22.5-15.7-24.3-31.1c-2.6-22.9,5.1-43.3,16.1-62.5c6.9-12.1,14.9-23.9,23.8-34.7c8.2-10.1,17.9-19.1,27.6-27.8
			c8.2-7.4,17.2-14.1,26.3-20.5c21-14.8,44.2-24.2,69.4-28.8c2.3-0.4,4.7-0.7,7-1.1C1715.7,20,1723.3,20,1731,20z M1704.8,59.3
			c-14.7-0.9-31.5,4.4-41.7,9.1c-21.7,9.9-40.8,23.5-56.4,41.8c-13.8,16.2-25.6,33.4-29,55.1c-1.8,11.4,1.8,25.5,14.4,31.3
			c7.3,3.4,14.8,3.9,22.7,3.5c17-0.7,32.6-6.5,47.7-13.5c24-11.2,45.7-25.9,63.7-45.5c9.3-10.2,17.2-21.3,20.9-35
			c5-18.1-1.4-33.4-18.1-41.7C1721.2,60.5,1713,58.7,1704.8,59.3z"/>
		<path class="st0" d="M342.1,294.7c14.2-2.6,28.1-5.6,42.1-7.5c10.9-1.5,21.7,0.4,31.8,4.8c14.1,6.2,26.4,14.9,37.8,25.2
			c22.8,20.5,42.4,43.7,59.1,69.2c12.9,19.8,25.3,40,36.9,60.6c15.4,27.2,28.9,55.3,38.2,85.2c5,16.1,9,32.4,9.3,49.5
			c0.1,2.9,3.2,6.3,5.7,8.6c6.6,6.2,13.6,12,20.5,17.7c13.4,11.1,26.8,22.1,40.5,32.9c12.1,9.5,24.5,18.5,37.4,28.2
			c-8,2.7-15.8,4.8-23.1,8.1c-6.7,3-11.7,1.2-16.9-3c-19.2-15.3-38.6-30.4-57.8-45.6c-4.9-3.9-9.7-8-14.1-11.6
			c-6.3,3.5-12.7,7.1-20.2,11.2c18.2,21.1,36.7,42.4,55.7,64.4c-2.9,1-5.9,2.3-8.9,3.2c-5.2,1.6-10.4,2.7-15.5,4.5
			c-4.2,1.5-7.5,1.2-10.6-2.3c-10.9-12.4-22.2-24.5-33-37.1c-13.3-15.5-26.5-31.2-39.1-47.3c-10.6-13.4-20.9-27.1-30.4-41.4
			c-18.6-27.9-37.5-55.7-54.3-84.7c-17.7-30.5-33.7-61.9-49.3-93.5c-10.9-22-20.3-44.9-30-67.6c-4.2-9.7-7.7-19.8-11.4-29.7
			C342.2,296.1,342.2,295.3,342.1,294.7z M412.2,365.8c7.3,16.2,13.7,32.2,21.6,47.5c14.9,28.9,30,57.7,46.4,85.7
			c14.3,24.5,30.5,47.8,45.8,71.7c1.3,2.1,2.5,2.7,5.1,1.8c10.9-3.6,17.9-14.2,16.3-27.8c-1.2-10.9-3.2-21.8-6.4-32.2
			c-7.1-23.4-18.5-45-31.3-65.7c-15.9-25.8-34.2-49.9-58.6-68.4C440.1,370,428,363.2,412.2,365.8z"/>
		<path class="st0" d="M262.2,307.9c13.1-2.2,25.9-4.3,39.2-6.6c3.1,6.9,6.3,14.1,9.4,21.4c5.4,12.4,10.5,25,16.2,37.2
			c8.4,18.1,16.5,36.4,26.1,53.9c17.7,32.4,35.8,64.5,54.5,96.3c23.1,39.2,50.3,75.5,77.5,111.9c14.5,19.5,27.2,40.4,32.2,64.8
			c1.4,7.1,2.3,14.1,0.4,21.4c-3.1,11.6-13.4,17.1-25,18.1c-19.6,1.8-37.8-3.9-55.3-12.1c-21.3-10-40.9-22.6-58.8-37.8
			c-15.9-13.5-30.2-28.7-42.7-45.5c-16-21.5-32.6-42.6-48.2-64.5c-15.5-21.9-30.5-44.2-44.8-66.8c-14.4-22.8-28.2-46-41.5-69.4
			c-13-22.9-25.4-46.2-37.7-69.5c-5.9-11.2-10.9-22.8-16.6-34.6c8.7-1.4,17-2.7,25.4-4c3.2-0.5,6.5-0.8,9.7-1.6
			c3.7-0.9,5.3-0.4,7.2,3.7c9.7,20.6,20.1,40.8,30.4,61.1c6.2,12.2,12.5,24.5,19.3,36.4c12.2,21.4,24.3,42.9,37.2,63.9
			c12.9,21,26.1,41.8,40.1,62.1c16.8,24.1,34.4,47.7,52.1,71.2c7.2,9.6,14.9,19,23.5,27.3c13.4,13,28.9,23,47,28.3
			c6.6,1.9,13.4,2.6,19-2.3c6.1-5.3,5.1-12.2,3.2-19.2c-4.2-15.3-13.7-27.6-23.1-39.9c-26.6-34.8-51.9-70.5-74.3-108.1
			c-16.4-27.6-32.8-55.2-47.7-83.6c-15.7-29.9-29.7-60.6-44.3-91C268.3,323.2,265.5,315.7,262.2,307.9z"/>
		<path class="st0" d="M328.8,673.3c5.6,6.3,10.8,12.1,15.8,17.9c5.6,6.5,11,13.1,16.6,19.5c6.1,6.9,12.4,13.7,18.4,20.7
			c0.7,0.8,0.5,3.5-0.2,4.4c-8,9.8-18.6,14.8-30.9,16.5c-22.5,3-44.2,0-65.7-6.9c-41.9-13.3-79.2-34.8-114.3-60.9
			c-24.3-18.1-46.6-38.3-67.1-60.4c-21.8-23.5-41-49-57.6-76.5c-13-21.6-23.8-44.3-31.5-68.3c-4.9-15.5-8.4-31.2-9.8-47.6
			c-1.8-21.9,0.3-43,10.5-62.6c9.9-18.9,26-28.4,47.4-30.3c17.1-1.5,32.9,2.7,48.8,8.1c7.1,2.5,8.7,9,11.7,14.3
			c9.7,17.4,19,35.1,28.5,52.6c4,7.2,8.3,14.3,11.8,22.1c-4.8-2.5-9.6-5.2-14.5-7.5c-13.3-6.4-26.8-11.2-42-11.3
			c-20.1-0.1-33.8,12.1-38.4,30.6c-4,16-1.7,31.8,2.4,47.3c8.7,33.3,26.5,61.9,46.9,89.1c13.1,17.4,28.1,33,44,47.7
			c19.2,17.7,40.1,33,63.1,45.6c16.3,8.9,33.1,16.1,51.3,20c12.4,2.6,24.9,3.1,36.9-1.6C318,693.1,324.5,688,328.8,673.3z"/>
		<path class="st0" d="M689,210c7.3,18.5,13.9,35.8,21,52.9c6.1,14.8,12.4,29.4,19,44c6.5,14.1,12.9,28.3,20.4,41.9
			c13.6,24.4,27.2,48.8,42.3,72.2c13.6,21.1,28.7,41.3,44.1,61.2c10.5,13.5,22.4,26,34.2,38.4c11.8,12.3,24.1,24,36.6,35.6
			c6.6,6.1,13.9,11.5,20.9,17.2c1.5,1.3,3.1,2.5,4.9,4c-9.1,4.5-17.5,8.6-25.8,12.7c-3.5,1.7-5.7-0.4-8.2-2.5
			c-10.2-8.6-20.4-17.2-30.8-25.7c-1-0.8-3-1.1-4.2-0.6c-20.4,7.7-40.7,15.5-61.1,23.4c-0.6,0.2-1.1,0.7-2.2,1.4
			c6.8,13.3,13.6,26.7,20.6,40.3c-8.5,3.6-17,7.2-25.5,10.9c-3.2,1.4-5.2,0.6-7.1-2.7c-21.2-36.7-39.3-74.8-52.5-115.1
			c-8.3-25.3-16.1-50.9-22.5-76.8c-5.4-21.6-8.8-43.7-12.5-65.6c-2.8-16.8-4.9-33.8-6.9-50.7c-1.2-9.8-1.2-19.8-2.2-29.6
			c-2.7-27.8-3-55.6-2.7-83.5C689,212.6,689,211.9,689,210z M824.7,518.6c-29.7-32.5-55.5-66.8-78.9-102.9
			c7.6,40.7,17.5,80.7,32.7,119.6C793.8,529.7,808.9,524.3,824.7,518.6z"/>
		<path class="st0" d="M1133.5,475.1c-9.1,5.1-17.7,10.1-26.6,14.6c-1.5,0.8-4.7-0.1-6.2-1.3c-13.9-11.2-27.6-22.5-41.2-34
			c-6.1-5.1-11.8-10.7-17.8-16.3c-4,1.9-8.2,3.9-13,6.3c10,23.3,22.5,45.3,37.5,66.2c-8.1,4.3-15.9,8.4-23.7,12.6
			c-2.5,1.4-4.1,1.2-6.1-1.5c-15.8-21.8-29.2-45.1-40.5-69.4c-14.9-32.1-26-65.5-34-99.9c-4-17.4-7.8-34.9-10.8-52.4
			c-2.4-13.4-3.9-27-5.1-40.6c-1.9-20.2-3.2-40.4-4.8-60.6c-0.3-3.9-0.9-7.9-0.9-11.8c0-1.2,1.3-3.3,2.4-3.5c16-3.3,31.9-7.1,48-9.1
			c11.8-1.5,21.9,4.4,30.4,12.3c15.2,14.2,24.2,32.4,31.9,51.3c7.5,18.5,11.9,38,15,57.6c3.4,21.1,5.3,42.4,4.2,63.7
			c-0.8,16.3-3.8,32.2-9.1,47.7c-0.5,1.4-0.2,3.7,0.6,4.6c8.1,8.9,16.2,17.8,24.8,26.2c7.9,7.7,16.4,14.8,24.9,21.9
			C1119.6,464.9,1126.3,469.6,1133.5,475.1z M981,246.1c4.2,52,12.8,103.1,29.5,153c8.2-1.2,14.1-5.8,18.4-12.1
			c8.7-12.6,11.2-27.3,11.6-42c0.2-11.5-1.2-23.1-3-34.4c-3.1-19.7-9.7-38.3-22.3-54C1007.4,246.7,995.6,239.1,981,246.1z"/>
		<path class="st0" d="M1281.9,250c0-14.1-0.6-28.3,0.2-42.3c0.8-14.4,2.9-28.8,4.9-43.1c2.4-17.7,5.3-35.3,8.2-52.9
			c0.2-1.4,1.7-3.3,2.8-3.6c15.6-3.5,31.1-7.7,46.9-9.8c23.7-3.2,44.1,3.6,59.5,23.2c12,15.2,19.7,32.3,23.4,51.1
			c3.5,17.8,3.1,35.8,1.7,53.9c-1.4,16.5-5,32.4-11,47.7c-7.7,19.6-18.1,37.6-31.5,53.9c-14.7,17.9-32.6,31.6-53.5,41.6
			c-8.5,4-16.6,8.8-24.8,13.4c-3.6,2-4.9,0-5.8-2.7c-4.8-14.6-10.3-29.1-13.8-44c-3.5-14.8-5.7-30-7-45.2
			C1280.9,277.6,1281.8,263.8,1281.9,250C1281.9,250,1281.9,250,1281.9,250z M1324.8,339.5c15.3-6.9,28.2-14.9,37.5-27.5
			c7.2-9.7,14.5-19.5,19.9-30.1c9.7-19,13.4-39.6,12.5-61.1c-0.7-16.3-4.6-31.3-13.7-45.1c-13.2-20-32.9-25.8-55.1-18.6
			c-1.5,0.5-3.2,2.6-3.5,4.2c-1.3,8.4-2.4,16.9-3.2,25.4c-1.5,14.9-3.4,29.8-3.9,44.8c-0.8,26.6-0.8,53.3,3.7,79.7
			C1320.8,320.5,1322.9,329.7,1324.8,339.5z"/>
		<path class="st0" d="M1193.6,127.1c0.5,6.4,0.9,12.5,1.4,18.5c1.3,16.9,2.2,33.9,4.2,50.8c2.4,19.5,5.5,38.9,8.9,58.3
			c3.9,21.7,10.4,42.8,18.4,63.3c8.3,21.5,18.8,42,32.5,60.7c4.4,6.1,9.3,11.8,14,17.8c1,1.3,2,2.6,2.9,3.8
			c-8.8,5-17.4,9.7-25.8,14.7c-3.8,2.3-5.3-0.1-7.2-2.4c-6.2-7.7-12.3-15.4-18.7-23.3c-13.2,6.3-26.3,12.8-39.6,18.9
			c-3.2,1.5-3.6,3.4-2.9,6.3c2.3,9.9,4.8,19.7,6.9,29.6c0.3,1.2-0.8,3.5-1.8,4.1c-7.3,4.2-14.7,8.1-22.1,12.1
			c-2.5,1.4-4.2,1.3-4.9-2.1c-3.9-16.6-8.4-33-11.7-49.7c-6.6-33.6-5.4-67.6-4.8-101.6c0.2-13.8,2.3-27.5,3.9-41.3
			c1.8-15.5,3.6-31,6.1-46.3c2.7-16.4,6-32.8,9.4-49.1c2.2-10.7,5.4-21.2,7.3-31.9c0.9-5.2,3.2-7.5,8.1-8.3
			C1183,129.3,1188.1,128.1,1193.6,127.1z M1177.4,274.8c-3,31.1-4.4,60.9-1.6,92c9.7-4.3,18.9-8.5,28.2-12.7
			C1192.1,328.7,1184,302.9,1177.4,274.8z"/>
		<path class="st0" d="M761.9,648c-8.9,3.4-16.9,6.3-24.7,9.4c-3.5,1.4-5.7,1.1-8.3-2.3c-5.5-7-12-13.2-17.7-20.1
			c-10-12-20.3-23.9-29.6-36.5c-14.1-19-28-38.2-41-58.1c-11.8-18.2-22.6-37.1-33.1-56.1c-9.2-16.6-18-33.4-25.7-50.6
			c-12.2-27.4-24-55.1-34.9-83.1c-8.3-21.4-14.9-43.4-22.1-65.2c-2.3-7-4.3-14.2-6.7-21.9c12.9-2.3,25.5-4.6,38.4-6.9
			C596.5,402.1,658.2,535.7,761.9,648z"/>
		<path class="st0" d="M1470.6,300c-1.7-8.7-4.2-16.6-4.7-24.7c-1.2-19.2-2.4-38.4-1.8-57.6c0.6-16.3,3.1-32.7,5.9-48.8
			c3.4-19.6,7.5-39.1,12.1-58.5c3.4-14.7,7.9-29.2,12-43.8c0.3-1,1.2-2.3,2-2.5c11.5-2.5,23-4.8,34.5-7.1c0.4-0.1,0.9,0.3,1.5,0.5
			c-2.8,9.6-6,19-8.3,28.6c-6.3,26.4-12.6,52.9-18.4,79.4c-5.9,27-7,54.4-6,81.9c0.4,10.6,2.7,21.1,4.4,31.6
			c0.5,3.1,0.1,4.8-2.9,6.2C1491.2,289.8,1481.6,294.6,1470.6,300z"/>
	</g>
	<g>
		<path d="M1736,0c7.1,1.9,14.4,3.4,21.4,5.9c17.4,6.2,31,16.9,37.7,34.7c5.2,13.8,3.5,27.4-1.5,40.8c-5.1,13.4-13.8,24.5-23.1,35.3
			c-17.3,19.8-38,35.5-59.9,49.7c-29,18.8-59.8,33.9-93.7,41.3c-16.4,3.6-33.2,5-49.7-1.2c-14.6-5.5-22.5-15.7-24.3-31.1
			c-2.6-22.9,5.1-43.3,16.1-62.5c6.9-12.1,14.9-23.9,23.8-34.7c8.2-10.1,17.9-19.1,27.6-27.8c8.2-7.4,17.2-14.1,26.3-20.5
			c21-14.8,44.2-24.2,69.4-28.8c2.3-0.4,4.7-0.7,7-1.1C1720.7,0,1728.3,0,1736,0z M1709.8,39.3c-14.7-0.9-31.5,4.4-41.7,9.1
			c-21.7,9.9-40.8,23.5-56.4,41.8c-13.8,16.2-25.6,33.4-29,55.1c-1.8,11.4,1.8,25.5,14.4,31.3c7.3,3.4,14.8,3.9,22.7,3.5
			c17-0.7,32.6-6.5,47.7-13.5c24-11.2,45.7-25.9,63.7-45.5c9.3-10.2,17.2-21.3,20.9-35c5-18.1-1.4-33.4-18.1-41.7
			C1726.2,40.5,1718,38.7,1709.8,39.3z"/>
		<path d="M347.1,274.7c14.2-2.6,28.1-5.6,42.1-7.5c10.9-1.5,21.7,0.4,31.8,4.8c14.1,6.2,26.4,14.9,37.8,25.2
			c22.8,20.5,42.4,43.7,59.1,69.2c12.9,19.8,25.3,40,36.9,60.6c15.4,27.2,28.9,55.3,38.2,85.2c5,16.1,9,32.4,9.3,49.5
			c0.1,2.9,3.2,6.3,5.7,8.6c6.6,6.2,13.6,12,20.5,17.7c13.4,11.1,26.8,22.1,40.5,32.9c12.1,9.5,24.5,18.5,37.4,28.2
			c-8,2.7-15.8,4.8-23.1,8.1c-6.7,3-11.7,1.2-16.9-3c-19.2-15.3-38.6-30.4-57.8-45.6c-4.9-3.9-9.7-8-14.1-11.6
			c-6.3,3.5-12.7,7.1-20.2,11.2c18.2,21.1,36.7,42.4,55.7,64.4c-2.9,1-5.9,2.3-8.9,3.2c-5.2,1.6-10.4,2.7-15.5,4.5
			c-4.2,1.5-7.5,1.2-10.6-2.3c-10.9-12.4-22.2-24.5-33-37.1c-13.3-15.5-26.5-31.2-39.1-47.3c-10.6-13.4-20.9-27.1-30.4-41.4
			c-18.6-27.9-37.5-55.7-54.3-84.7c-17.7-30.5-33.7-61.9-49.3-93.5c-10.9-22-20.3-44.9-30-67.6c-4.2-9.7-7.7-19.8-11.4-29.7
			C347.2,276.1,347.2,275.3,347.1,274.7z M417.2,345.8c7.3,16.2,13.7,32.2,21.6,47.5c14.9,28.9,30,57.7,46.4,85.7
			c14.3,24.5,30.5,47.8,45.8,71.7c1.3,2.1,2.5,2.7,5.1,1.8c10.9-3.6,17.9-14.2,16.3-27.8c-1.2-10.9-3.2-21.8-6.4-32.2
			c-7.1-23.4-18.5-45-31.3-65.7c-15.9-25.8-34.2-49.9-58.6-68.4C445.1,350,433,343.2,417.2,345.8z"/>
		<path d="M267.2,287.9c13.1-2.2,25.9-4.3,39.2-6.6c3.1,6.9,6.3,14.1,9.4,21.4c5.4,12.4,10.5,25,16.2,37.2
			c8.4,18.1,16.5,36.4,26.1,53.9c17.7,32.4,35.8,64.5,54.5,96.3c23.1,39.2,50.3,75.5,77.5,111.9c14.5,19.5,27.2,40.4,32.2,64.8
			c1.4,7.1,2.3,14.1,0.4,21.4c-3.1,11.6-13.4,17.1-25,18.1c-19.6,1.8-37.8-3.9-55.3-12.1c-21.3-10-40.9-22.6-58.8-37.8
			c-15.9-13.5-30.2-28.7-42.7-45.5c-16-21.5-32.6-42.6-48.2-64.5c-15.5-21.9-30.5-44.2-44.8-66.8c-14.4-22.8-28.2-46-41.5-69.4
			c-13-22.9-25.4-46.2-37.7-69.5c-5.9-11.2-10.9-22.8-16.6-34.6c8.7-1.4,17-2.7,25.4-4c3.2-0.5,6.5-0.8,9.7-1.6
			c3.7-0.9,5.3-0.4,7.2,3.7c9.7,20.6,20.1,40.8,30.4,61.1c6.2,12.2,12.5,24.5,19.3,36.4c12.2,21.4,24.3,42.9,37.2,63.9
			c12.9,21,26.1,41.8,40.1,62.1c16.8,24.1,34.4,47.7,52.1,71.2c7.2,9.6,14.9,19,23.5,27.3c13.4,13,28.9,23,47,28.3
			c6.6,1.9,13.4,2.6,19-2.3c6.1-5.3,5.1-12.2,3.2-19.2c-4.2-15.3-13.7-27.6-23.1-39.9c-26.6-34.8-51.9-70.5-74.3-108.1
			c-16.4-27.6-32.8-55.2-47.7-83.6c-15.7-29.9-29.7-60.6-44.3-91C273.3,303.2,270.5,295.7,267.2,287.9z"/>
		<path d="M333.8,653.3c5.6,6.3,10.8,12.1,15.8,17.9c5.6,6.5,11,13.1,16.6,19.5c6.1,6.9,12.4,13.7,18.4,20.7
			c0.7,0.8,0.5,3.5-0.2,4.4c-8,9.8-18.6,14.8-30.9,16.5c-22.5,3-44.2,0-65.7-6.9c-41.9-13.3-79.2-34.8-114.3-60.9
			c-24.3-18.1-46.6-38.3-67.1-60.4c-21.8-23.5-41-49-57.6-76.5c-13-21.6-23.8-44.3-31.5-68.3c-4.9-15.5-8.4-31.2-9.8-47.6
			c-1.8-21.9,0.3-43,10.5-62.6c9.9-18.9,26-28.4,47.4-30.3c17.1-1.5,32.9,2.7,48.8,8.1c7.1,2.5,8.7,9,11.7,14.3
			c9.7,17.4,19,35.1,28.5,52.6c4,7.2,8.3,14.3,11.8,22.1c-4.8-2.5-9.6-5.2-14.5-7.5c-13.3-6.4-26.8-11.2-42-11.3
			c-20.1-0.1-33.8,12.1-38.4,30.6c-4,16-1.7,31.8,2.4,47.3c8.7,33.3,26.5,61.9,46.9,89.1c13.1,17.4,28.1,33,44,47.7
			c19.2,17.7,40.1,33,63.1,45.6c16.3,8.9,33.1,16.1,51.3,20c12.4,2.6,24.9,3.1,36.9-1.6C323,673.1,329.5,668,333.8,653.3z"/>
		<path d="M694,190c7.3,18.5,13.9,35.8,21,52.9c6.1,14.8,12.4,29.4,19,44c6.5,14.1,12.9,28.3,20.4,41.9
			c13.6,24.4,27.2,48.8,42.3,72.2c13.6,21.1,28.7,41.3,44.1,61.2c10.5,13.5,22.4,26,34.2,38.4c11.8,12.3,24.1,24,36.6,35.6
			c6.6,6.1,13.9,11.5,20.9,17.2c1.5,1.3,3.1,2.5,4.9,4c-9.1,4.5-17.5,8.6-25.8,12.7c-3.5,1.7-5.7-0.4-8.2-2.5
			c-10.2-8.6-20.4-17.2-30.8-25.7c-1-0.8-3-1.1-4.2-0.6c-20.4,7.7-40.7,15.5-61.1,23.4c-0.6,0.2-1.1,0.7-2.2,1.4
			c6.8,13.3,13.6,26.7,20.6,40.3c-8.5,3.6-17,7.2-25.5,10.9c-3.2,1.4-5.2,0.6-7.1-2.7c-21.2-36.7-39.3-74.8-52.5-115.1
			c-8.3-25.3-16.1-50.9-22.5-76.8c-5.4-21.6-8.8-43.7-12.5-65.6c-2.8-16.8-4.9-33.8-6.9-50.7c-1.2-9.8-1.2-19.8-2.2-29.6
			c-2.7-27.8-3-55.6-2.7-83.5C694,192.6,694,191.9,694,190z M829.7,498.6c-29.7-32.5-55.5-66.8-78.9-102.9
			c7.6,40.7,17.5,80.7,32.7,119.6C798.8,509.7,813.9,504.3,829.7,498.6z"/>
		<path d="M1138.5,455.1c-9.1,5.1-17.7,10.1-26.6,14.6c-1.5,0.8-4.7-0.1-6.2-1.3c-13.9-11.2-27.6-22.5-41.2-34
			c-6.1-5.1-11.8-10.7-17.8-16.3c-4,1.9-8.2,3.9-13,6.3c10,23.3,22.5,45.3,37.5,66.2c-8.1,4.3-15.9,8.4-23.7,12.6
			c-2.5,1.4-4.1,1.2-6.1-1.5c-15.8-21.8-29.2-45.1-40.5-69.4c-14.9-32.1-26-65.5-34-99.9c-4-17.4-7.8-34.9-10.8-52.4
			c-2.4-13.4-3.9-27-5.1-40.6c-1.9-20.2-3.2-40.4-4.8-60.6c-0.3-3.9-0.9-7.9-0.9-11.8c0-1.2,1.3-3.3,2.4-3.5c16-3.3,31.9-7.1,48-9.1
			c11.8-1.5,21.9,4.4,30.4,12.3c15.2,14.2,24.2,32.4,31.9,51.3c7.5,18.5,11.9,38,15,57.6c3.4,21.1,5.3,42.4,4.2,63.7
			c-0.8,16.3-3.8,32.2-9.1,47.7c-0.5,1.4-0.2,3.7,0.6,4.6c8.1,8.9,16.2,17.8,24.8,26.2c7.9,7.7,16.4,14.8,24.9,21.9
			C1124.6,444.9,1131.3,449.6,1138.5,455.1z M986,226.1c4.2,52,12.8,103.1,29.5,153c8.2-1.2,14.1-5.8,18.4-12.1
			c8.7-12.6,11.2-27.3,11.6-42c0.2-11.5-1.2-23.1-3-34.4c-3.1-19.7-9.7-38.3-22.3-54C1012.4,226.7,1000.6,219.1,986,226.1z"/>
		<path d="M1286.9,230c0-14.1-0.6-28.3,0.2-42.3c0.8-14.4,2.9-28.8,4.9-43.1c2.4-17.7,5.3-35.3,8.2-52.9c0.2-1.4,1.7-3.3,2.8-3.6
			c15.6-3.5,31.1-7.7,46.9-9.8c23.7-3.2,44.1,3.6,59.5,23.2c12,15.2,19.7,32.3,23.4,51.1c3.5,17.8,3.1,35.8,1.7,53.9
			c-1.4,16.5-5,32.4-11,47.7c-7.7,19.6-18.1,37.6-31.5,53.9c-14.7,17.9-32.6,31.6-53.5,41.6c-8.5,4-16.6,8.8-24.8,13.4
			c-3.6,2-4.9,0-5.8-2.7c-4.8-14.6-10.3-29.1-13.8-44c-3.5-14.8-5.7-30-7-45.2C1285.9,257.6,1286.8,243.8,1286.9,230
			C1286.9,230,1286.9,230,1286.9,230z M1329.8,319.5c15.3-6.9,28.2-14.9,37.5-27.5c7.2-9.7,14.5-19.5,19.9-30.1
			c9.7-19,13.4-39.6,12.5-61.1c-0.7-16.3-4.6-31.3-13.7-45.1c-13.2-20-32.9-25.8-55.1-18.6c-1.5,0.5-3.2,2.6-3.5,4.2
			c-1.3,8.4-2.4,16.9-3.2,25.4c-1.5,14.9-3.4,29.8-3.9,44.8c-0.8,26.6-0.8,53.3,3.7,79.7C1325.8,300.5,1327.9,309.7,1329.8,319.5z"
			/>
		<path d="M1198.6,107.1c0.5,6.4,0.9,12.5,1.4,18.5c1.3,16.9,2.2,33.9,4.2,50.8c2.4,19.5,5.5,38.9,8.9,58.3
			c3.9,21.7,10.4,42.8,18.4,63.3c8.3,21.5,18.8,42,32.5,60.7c4.4,6.1,9.3,11.8,14,17.8c1,1.3,2,2.6,2.9,3.8
			c-8.8,5-17.4,9.7-25.8,14.7c-3.8,2.3-5.3-0.1-7.2-2.4c-6.2-7.7-12.3-15.4-18.7-23.3c-13.2,6.3-26.3,12.8-39.6,18.9
			c-3.2,1.5-3.6,3.4-2.9,6.3c2.3,9.9,4.8,19.7,6.9,29.6c0.3,1.2-0.8,3.5-1.8,4.1c-7.3,4.2-14.7,8.1-22.1,12.1
			c-2.5,1.4-4.2,1.3-4.9-2.1c-3.9-16.6-8.4-33-11.7-49.7c-6.6-33.6-5.4-67.6-4.8-101.6c0.2-13.8,2.3-27.5,3.9-41.3
			c1.8-15.5,3.6-31,6.1-46.3c2.7-16.4,6-32.8,9.4-49.1c2.2-10.7,5.4-21.2,7.3-31.9c0.9-5.2,3.2-7.5,8.1-8.3
			C1188,109.3,1193.1,108.1,1198.6,107.1z M1182.4,254.8c-3,31.2-4.4,60.9-1.6,92c9.7-4.3,18.9-8.5,28.2-12.7
			C1197.1,308.7,1189,282.9,1182.4,254.8z"/>
		<path d="M766.9,628c-8.9,3.4-16.9,6.3-24.7,9.4c-3.5,1.4-5.7,1.1-8.3-2.3c-5.5-7-12-13.2-17.7-20.1c-10-12-20.3-23.9-29.6-36.5
			c-14.1-19-28-38.2-41-58.1c-11.8-18.2-22.6-37.1-33.1-56.1c-9.2-16.6-18-33.4-25.7-50.6c-12.2-27.4-24-55.1-34.9-83.1
			c-8.3-21.4-14.9-43.4-22.1-65.2c-2.3-7-4.3-14.2-6.7-21.9c12.9-2.3,25.5-4.6,38.4-6.9C601.5,382.1,663.2,515.7,766.9,628z"/>
		<path d="M1475.6,280c-1.7-8.7-4.2-16.6-4.7-24.7c-1.2-19.2-2.4-38.4-1.8-57.6c0.6-16.3,3.1-32.7,5.9-48.8
			c3.4-19.6,7.5-39.1,12.1-58.5c3.4-14.7,7.9-29.2,12-43.8c0.3-1,1.2-2.3,2-2.5c11.5-2.5,23-4.8,34.5-7.1c0.4-0.1,0.9,0.3,1.5,0.5
			c-2.8,9.6-6,19-8.3,28.6c-6.3,26.4-12.6,52.9-18.4,79.4c-5.9,27-7,54.4-6,81.9c0.4,10.6,2.7,21.1,4.4,31.6
			c0.5,3.1,0.1,4.8-2.9,6.2C1496.2,269.8,1486.6,274.6,1475.6,280z"/>
	</g>
</g>
</svg>
